<svg xmlns="http://www.w3.org/2000/svg" width="40" height="40" fill="none" viewBox="0 0 40 40">
  <g clip-path="url(#a)">
    <path fill="#000" d="M37.42 0H2.58A2.58 2.58 0 0 0 0 2.58v34.84A2.58 2.58 0 0 0 2.58 40h34.84A2.58 2.58 0 0 0 40 37.42V2.58A2.58 2.58 0 0 0 37.42 0Z"/>
    <path fill="#FF002F" d="M3.226 14.194V6.452c0-.357.289-.645.645-.645h16.774c.357 0 .645.288.645.645v4.838l2.722-5.14a.645.645 0 0 1 .57-.343h12.572c.445 0 .756.439.609.858L27.571 35.698a.645.645 0 0 1-.609.431H9.677a.645.645 0 0 1-.645-.645v-20a.645.645 0 0 0-.645-.645H3.871a.645.645 0 0 1-.645-.645Z"/>
    <path fill="#fff" fill-rule="evenodd" d="M20.968 21.895a2.58 2.58 0 0 1-4.839-1.25 2.58 2.58 0 0 1 4.839-1.25 2.58 2.58 0 1 1 0 2.5Z" clip-rule="evenodd"/>
    <path fill="#030303" fill-rule="evenodd" d="M18.71 21.936a1.29 1.29 0 1 0 0-2.58 1.29 1.29 0 0 0 0 2.58Zm4.516 0a1.29 1.29 0 1 0 0-2.58 1.29 1.29 0 0 0 0 2.58Z" clip-rule="evenodd"/>
    <path fill="#fff" fill-rule="evenodd" d="M19.355 26.673a1.29 1.29 0 0 0 1.271-1.51l-2.31.143a.648.648 0 0 0-.251.067v.01c0 .712.577 1.29 1.29 1.29Z" clip-rule="evenodd"/>
    <path stroke="#000" stroke-linecap="round" d="m17.071 25.46 7.744-.595"/>
    <path fill="#FF305B" fill-rule="evenodd" d="M27.742 23.55a.323.323 0 1 1-.645 0 .323.323 0 0 1 .645 0Zm1.935 0a.323.323 0 1 1-.645 0 .323.323 0 0 1 .645 0Zm-1.613 1.612a.323.323 0 1 0 0-.645.323.323 0 0 0 0 .645ZM11.613 23.55a.323.323 0 1 0 .645 0 .323.323 0 0 0-.645 0Zm1.935 0a.323.323 0 1 0 .646 0 .323.323 0 0 0-.646 0Zm-.322 1.612a.323.323 0 1 1 0-.645.323.323 0 0 1 0 .645Z" clip-rule="evenodd"/>
  </g>
  <defs>
    <clipPath id="a">
      <path fill="#fff" d="M0 0h40v40H0z"/>
    </clipPath>
  </defs>
</svg>
