<svg width="22" height="22" viewBox="0 0 22 22" fill="none" xmlns="http://www.w3.org/2000/svg">
<g id="Group">
<path id="Vector" d="M15.0106 15.7871L10.9994 11.776L6.98831 15.7871C6.93765 15.8388 6.87705 15.8796 6.81025 15.9074C6.74346 15.9353 6.67181 15.9497 6.59944 15.9493C6.49045 15.9495 6.38395 15.9174 6.29329 15.857C6.20262 15.7965 6.13192 15.7106 6.09026 15.6099C6.0486 15.5092 6.03768 15.3977 6.05911 15.2908C6.08054 15.184 6.1333 15.0863 6.21057 15.0094L10.2217 10.9983L6.21057 6.98713C6.11039 6.8834 6.0549 6.74462 6.05615 6.60041C6.05741 6.4562 6.11531 6.31782 6.21729 6.21584C6.31926 6.11387 6.45711 6.05596 6.60132 6.05471C6.74553 6.05346 6.88458 6.10921 6.98831 6.2094L10.9994 10.2205L15.0106 6.2094C15.1143 6.10921 15.2534 6.05346 15.3976 6.05471C15.5418 6.05596 15.6796 6.11387 15.7816 6.21584C15.8836 6.31782 15.9415 6.4562 15.9427 6.60041C15.944 6.74462 15.8885 6.8834 15.7883 6.98713L11.7772 10.9983L15.7883 15.0094C15.8408 15.0601 15.8827 15.1206 15.9116 15.1877C15.9404 15.2548 15.9555 15.3274 15.9562 15.4004C15.9568 15.4734 15.943 15.5455 15.9153 15.6131C15.8877 15.6807 15.8467 15.7419 15.795 15.7936C15.7434 15.8452 15.6821 15.8862 15.6146 15.9139C15.547 15.9415 15.4743 15.9553 15.4013 15.9547C15.3283 15.9541 15.2563 15.9395 15.1892 15.9107C15.1221 15.8818 15.0613 15.8397 15.0106 15.7871Z" fill="white"/>
</g>
</svg>
