<svg xmlns="http://www.w3.org/2000/svg" width="18" height="18" fill="none" viewBox="0 0 18 18">
  <g clip-path="url(#a)">
    <path fill="#000" d="M16.839 0H1.16C.52 0 0 .52 0 1.161V16.84C0 17.48.52 18 1.161 18H16.84c.64 0 1.16-.52 1.16-1.161V1.16C18 .52 17.48 0 16.839 0Z"/>
    <path fill="#FF002F" d="M1.452 6.387V2.904c0-.16.13-.29.29-.29H9.29c.16 0 .29.13.29.29V5.08l1.225-2.313a.29.29 0 0 1 .257-.155h5.657c.2 0 .34.198.274.387l-4.586 13.064a.29.29 0 0 1-.274.194H4.355a.29.29 0 0 1-.29-.29v-9a.29.29 0 0 0-.29-.29H1.741a.29.29 0 0 1-.29-.29Z"/>
    <path fill="#fff" fill-rule="evenodd" d="M9.435 9.853a1.16 1.16 0 1 1 0-1.125 1.161 1.161 0 1 1 0 1.125Z" clip-rule="evenodd"/>
    <path fill="#030303" fill-rule="evenodd" d="M8.42 9.87a.58.58 0 1 0 0-1.161.58.58 0 0 0 0 1.161Zm2.032 0a.58.58 0 1 0 0-1.16.58.58 0 0 0 0 1.16Z" clip-rule="evenodd"/>
    <path fill="#fff" fill-rule="evenodd" d="M8.71 12.002a.58.58 0 0 0 .572-.68l-1.04.065a.293.293 0 0 0-.113.03v.005c0 .32.26.58.58.58Z" clip-rule="evenodd"/>
    <path stroke="#000" stroke-linecap="round" d="m7.682 11.457 3.485-.268"/>
    <path fill="#FF305B" fill-rule="evenodd" d="M12.484 10.596a.145.145 0 1 1-.29 0 .145.145 0 0 1 .29 0Zm.87 0a.145.145 0 1 1-.29 0 .145.145 0 0 1 .29 0Zm-.725.726a.145.145 0 1 0 0-.29.145.145 0 0 0 0 .29Zm-7.403-.726a.145.145 0 1 0 .29 0 .145.145 0 0 0-.29 0Zm.87 0a.145.145 0 1 0 .291 0 .145.145 0 0 0-.29 0Zm-.144.726a.145.145 0 1 1 0-.29.145.145 0 0 1 0 .29Z" clip-rule="evenodd"/>
  </g>
  <defs>
    <clipPath id="a">
      <path fill="#fff" d="M0 0h18v18H0z"/>
    </clipPath>
  </defs>
</svg>
