<svg width="20" height="20" viewBox="0 0 20 20" fill="none" xmlns="http://www.w3.org/2000/svg">
<g opacity="0.301">
<path d="M10 20C15.5228 20 20 15.5228 20 10C20 4.47715 15.5228 0 10 0C4.47715 0 0 4.47715 0 10C0 15.5228 4.47715 20 10 20Z" fill="white"/>
<path d="M13.6475 14.2861C13.5636 14.2862 13.4805 14.2697 13.4031 14.2376C13.3256 14.2055 13.2552 14.1583 13.1961 14.0989L5.90177 6.80462C5.78208 6.68488 5.71484 6.5225 5.71484 6.3532C5.71484 6.18389 5.78208 6.02151 5.90177 5.90177C6.02151 5.78208 6.18389 5.71484 6.3532 5.71484C6.5225 5.71484 6.68488 5.78208 6.80462 5.90177L14.0989 13.1961C14.1882 13.2854 14.249 13.3991 14.2736 13.523C14.2982 13.6468 14.2856 13.7752 14.2372 13.8918C14.1889 14.0085 14.1071 14.1082 14.0021 14.1784C13.8972 14.2485 13.7737 14.286 13.6475 14.2861V14.2861Z" fill="black"/>
<path d="M6.3532 14.2861C6.26933 14.2862 6.18626 14.2697 6.10878 14.2376C6.0313 14.2055 5.96095 14.1583 5.90177 14.0989C5.78208 13.9792 5.71484 13.8168 5.71484 13.6475C5.71484 13.4782 5.78208 13.3158 5.90177 13.1961L13.1961 5.90177C13.3158 5.78208 13.4782 5.71484 13.6475 5.71484C13.8168 5.71484 13.9792 5.78208 14.0989 5.90177C14.2186 6.02151 14.2858 6.18389 14.2858 6.3532C14.2858 6.5225 14.2186 6.68488 14.0989 6.80462L6.80462 14.0989C6.74544 14.1583 6.67509 14.2055 6.59761 14.2376C6.52013 14.2697 6.43707 14.2862 6.3532 14.2861V14.2861Z" fill="black"/>
</g>
</svg>
