<svg width="132" height="34" viewBox="0 0 132 34" fill="none" xmlns="http://www.w3.org/2000/svg">
<mask id="mask0_4549_3145" style="mask-type:luminance" maskUnits="userSpaceOnUse" x="0" y="0" width="132" height="34">
<path d="M0 0.87793H131.511V33.1249H0V0.87793Z" fill="white"/>
</mask>
<g mask="url(#mask0_4549_3145)">
<path d="M86.1645 19.0513L92.5695 31.9768H102.522V1.6543H92.994V14.2768C92.9944 14.4676 92.9301 14.6529 92.8117 14.8025C92.6933 14.9521 92.5278 15.0573 92.342 15.1007C92.1562 15.1442 91.9612 15.1235 91.7887 15.042C91.6162 14.9605 91.4764 14.8229 91.392 14.6518L84.954 1.6543H75.0015V31.9753H84.558V19.4248C84.558 19.2341 84.6225 19.0491 84.741 18.8997C84.8595 18.7503 85.0251 18.6455 85.2108 18.6022C85.3964 18.5589 85.5913 18.5797 85.7637 18.6613C85.936 18.7428 86.0757 18.8803 86.16 19.0513" fill="white"/>
<path d="M60.2625 1.6543H70.713V31.9753H60.2625V1.6543Z" fill="white"/>
<path d="M105.61 13.9455V19.5345C105.61 24.9705 107.661 28.9005 111.704 31.2135C118.154 34.905 127.441 32.6265 131.512 29.616V15.5055H122.074V24.3795L121.895 24.45C121.145 24.7408 120.34 24.8601 119.538 24.7991C118.736 24.7381 117.958 24.4984 117.261 24.0975C116.605 23.5682 116.092 22.8827 115.77 22.1039C115.447 21.325 115.326 20.4776 115.416 19.6395V13.386C115.322 12.5738 115.526 11.7551 115.991 11.0822C116.455 10.4093 117.148 9.92785 117.941 9.72751C118.803 9.51985 119.712 9.64736 120.484 10.0842C121.256 10.5211 121.833 11.2348 122.099 12.081L131.241 7.17751C130.077 5.15463 128.374 3.49461 126.322 2.38231C124.27 1.27 121.949 0.749068 119.619 0.877508C119.003 0.877508 118.403 0.907508 117.831 0.958508C114.741 1.14317 111.792 2.31639 109.419 4.30501C108.134 5.54748 107.13 7.0507 106.474 8.71356C105.819 10.3764 105.527 12.1604 105.618 13.9455" fill="white"/>
<path d="M25.9305 1.6543H0V10.5313H7.8V31.9813H18.1155V10.5313H25.923L25.9305 1.6543Z" fill="white"/>
<path d="M37.899 32.3208L44.433 12.0183C44.4937 11.8255 44.6215 11.6609 44.7933 11.5543C44.965 11.4477 45.1693 11.4063 45.369 11.4375C45.5687 11.4688 45.7505 11.5706 45.8816 11.7245C46.0126 11.8784 46.0841 12.0742 46.083 12.2763L46.083 32.3223L55.992 32.3223L55.992 1.99977L37.2555 1.99976L27 32.3208L37.899 32.3208Z" fill="white"/>
</g>
</svg>
