<svg xmlns="http://www.w3.org/2000/svg" width="112" height="34" fill="none" viewBox="0 0 112 34">
  <g clip-path="url(#a)">
    <path fill="#fff" fill-rule="evenodd" d="M29.666 11.452c0-4.392-4.645-6.493-10.166-6.493-5.9 0-11.305 2.602-13.29 6.667a7.68 7.68 0 0 0-.85 3.509 5.274 5.274 0 0 0 .85 2.954 5.212 5.212 0 0 0 4.615 2.047c2.717 0 4.907-1.492 4.907-4.123a.725.725 0 0 0-.817-.73c-.702 0-.876.497-.85.73a3.277 3.277 0 0 1-3.298 3.713c-2.424 0-3.447-2.076-3.447-4.298 0-4.533 3.418-7.515 6.953-8.831a14.325 14.325 0 0 1 5.2-.907c4.03 0 7.302 1.55 7.302 5.667a6.894 6.894 0 0 1-6.375 6.666l.142-.467a24.597 24.597 0 0 1 3.009-7.367 3.16 3.16 0 0 1 .38-.527l-.205-.233a5.88 5.88 0 0 0-.877.614c-6.658 5.177-6.865 19.798-15.716 19.798a4.55 4.55 0 0 1-.905-.058 3.098 3.098 0 0 1-2.834-3.275c0-.322.118-.79.118-1.053a.893.893 0 0 0-.877-.936h-.078c-.789 0-1.11.643-1.133 1.52-.058 2.602 1.841 4.094 4.79 4.392.322 0 .644.03.993.03 6.923 0 11.159-5.235 12.97-11.58a16.931 16.931 0 0 0 2.692-.585c3.213-.877 6.8-3.042 6.8-6.843m38.799 6.509a15.942 15.942 0 0 1-2.6 6.406c-.526.79-.992.992-1.401.992-.584 0-.73-.468-.643-1.133a15.619 15.619 0 0 1 2.482-5.935c.643-.877 1.05-1.228 1.548-1.228.468 0 .614.41.614.907M41.54 24.694c-.35 0-.613-.117-.613-.585a10.838 10.838 0 0 1 2.248-5.028 4.37 4.37 0 0 1 3.213-2.045l-1.547 3.45c-1.169 2.66-2.366 4.208-3.301 4.208Zm-15.187 0c-.35 0-.583-.117-.583-.585a11.474 11.474 0 0 1 2.248-5.028 4.37 4.37 0 0 1 3.213-2.045l-1.519 3.45c-1.169 2.6-2.424 4.208-3.359 4.208ZM95.54 12.973h-2.454l-.526 1.286-.963 2.163h-1.133l-.35.731h1.197l-1.431 3.128c-1.023 2.222-2.6 4.392-3.505 4.392-.204 0-.322-.088-.322-.292.034-.325.123-.64.264-.935.292-.673.76-1.638 1.11-2.367a11.786 11.786 0 0 0 1.314-3.42 1.366 1.366 0 0 0-1.489-1.432 4.35 4.35 0 0 0-3.067 1.666l.613-1.462h-2.312l-1.868 4.238c-.731 1.503-2.25 3.983-3.213 3.983-.204 0-.292-.118-.292-.322a1.77 1.77 0 0 1 .142-.525c.087-.176 1.197-2.807 1.197-2.807l2.014-4.648h-2.453l-1.984 4.533c-.583 1.403-2.125 3.771-3.125 3.771a.306.306 0 0 1-.35-.291v-.058c.048-.357.157-.703.322-1.023l1.022-2.28 2.125-4.648H73.57l-.468 1.053a2.397 2.397 0 0 1-1.956 1.55c-.468 0-.701-.176-.788-.352a2.417 2.417 0 0 0-2.6-2.397 5.222 5.222 0 0 0-4.41 2.66 11.85 11.85 0 0 0-1.46 3.217c-.876 1.432-1.782 2.55-2.512 2.55a.284.284 0 0 1-.321-.322 3.61 3.61 0 0 1 .321-.992l1.607-3.42a6.98 6.98 0 0 0 .76-2.426 1.235 1.235 0 0 0-1.344-1.257 4.896 4.896 0 0 0-3.417 1.754 1.62 1.62 0 0 0 .058-.526 1.094 1.094 0 0 0-1.255-1.228 4.334 4.334 0 0 0-3.125 1.754l.642-1.578h-2.22l-1.899 4.267c-.905 1.983-2.336 3.975-3.153 3.975-.176 0-.292-.088-.292-.322a7.51 7.51 0 0 1 .584-1.724l2.512-5.666c.175-.44-1.023-.709-2.542-.709A7.062 7.062 0 0 0 41.939 18a3.892 3.892 0 0 1-1.752 1.023c-.142 0-.204-.088-.204-.176 0-.351.817-1.314.817-2.075 0-.352-.176-.556-.643-.556a4.344 4.344 0 0 0-2.716 1.724l.643-1.55h-2.19l-1.859 4.263c-.905 1.984-2.394 4.093-3.183 4.093-.204 0-.321-.117-.321-.351a6.806 6.806 0 0 1 .643-1.812l2.482-5.667c.175-.439-1.023-.708-2.54-.708a7.43 7.43 0 0 0-5.578 3.098 9.258 9.258 0 0 0-2.19 4.94 1.685 1.685 0 0 0 1.81 1.9 4.27 4.27 0 0 0 3.096-1.9 3.01 3.01 0 0 0-.088.497c0 .82.322 1.403 1.315 1.403a4.348 4.348 0 0 0 2.954-1.897l-.73 1.724h2.366l2.33-5.287c.76-1.724 1.635-2.601 1.869-2.601.088 0 .141.03.141.088 0 .175-.38.673-.38 1.11 0 .438.235.79.906.79a3.216 3.216 0 0 0 1.577-.556 8.758 8.758 0 0 0-2.015 4.736 1.66 1.66 0 0 0 1.81 1.9 4.676 4.676 0 0 0 3.126-2.046 3.96 3.96 0 0 0-.058.585 1.342 1.342 0 0 0 1.373 1.462c1.023 0 1.81-.643 2.833-1.87l-.76 1.7h2.454l2.22-5.057c.964-2.192 2.308-3.362 2.95-3.362.141-.03.292.118.321.264v.058a3.005 3.005 0 0 1-.204.73l-3.213 7.396h2.512l2.248-5.144c.992-2.222 2.074-3.304 2.862-3.304.262 0 .35.118.35.38a2.41 2.41 0 0 1-.204.819l-2.19 4.675a4 4 0 0 0-.38 1.402c0 .731.38 1.345 1.489 1.345 1.401 0 2.482-1.081 3.709-2.661v.322a2.407 2.407 0 0 0 2.692 2.397c2.248 0 4.03-1.52 5.14-3.976.403-.87.67-1.796.788-2.748.245.12.517.169.788.142a1.88 1.88 0 0 0 1.051-.264l-.38.85c-.437.935-.935 1.958-1.314 2.834a4.532 4.532 0 0 0-.438 1.637 1.387 1.387 0 0 0 1.489 1.52 5.059 5.059 0 0 0 3.33-2.25c-.06.268-.09.543-.089.818 0 .731.234 1.432 1.227 1.432a4.152 4.152 0 0 0 2.975-1.93l-.73 1.7h2.454l1.957-4.472c1.109-2.514 2.22-4.034 3.27-4.034a.348.348 0 0 1 .35.292v.087c-.28.95-.673 1.862-1.168 2.719a51.02 51.02 0 0 0-1.133 2.513 4.155 4.155 0 0 0-.438 1.666 1.26 1.26 0 0 0 1.373 1.374 5.308 5.308 0 0 0 3.62-2.426 4.795 4.795 0 0 0-.262 1.55 1.915 1.915 0 0 0 2.045 2.133 3.875 3.875 0 0 0 2.22-.731 10.46 10.46 0 0 0 2.307-2.513l-.438-.41a9.577 9.577 0 0 1-1.898 2.105c-.35.303-.792.478-1.255.498-.526 0-.85-.264-.85-.907a8.442 8.442 0 0 1 .79-2.719s.67-1.52 1.314-2.952c.525-1.228 1.051-2.397 1.133-2.63h1.607l.321-.732H94.02l1.52-3.446Zm10.768 3.46 2.229-5.189h-2.641l-2.256 5.19h-5.587l-.949 2.164h5.609l-2.226 5.13h2.641l2.255-5.13h5.609l.919-2.165h-5.603Z" clip-rule="evenodd"/>
  </g>
  <defs>
    <clipPath id="a">
      <path fill="#fff" d="M0 0h111.917v34H0z"/>
    </clipPath>
  </defs>
</svg>
