<svg xmlns="http://www.w3.org/2000/svg" width="65" height="20" fill="none" viewBox="0 0 65 20">
  <path fill="#fff" fill-rule="evenodd" d="M17.23 6.735c0-2.583-2.698-3.819-5.904-3.819-3.427 0-6.566 1.53-7.72 3.922a4.565 4.565 0 0 0-.493 2.064c-.01.616.162 1.22.493 1.737a3.01 3.01 0 0 0 2.681 1.205c1.578 0 2.85-.878 2.85-2.425a.43.43 0 0 0-.14-.326.42.42 0 0 0-.335-.104c-.407 0-.508.292-.493.43a1.951 1.951 0 0 1-.464 1.536 1.904 1.904 0 0 1-1.452.648c-1.408 0-2.002-1.222-2.002-2.529 0-2.666 1.986-4.42 4.039-5.195a8.226 8.226 0 0 1 3.02-.533c2.34 0 4.24.912 4.24 3.333a4.082 4.082 0 0 1-1.108 2.68 3.983 3.983 0 0 1-2.594 1.242l.082-.275c.347-1.53.937-2.995 1.748-4.333a1.87 1.87 0 0 1 .22-.31l-.118-.138c-.18.105-.35.226-.51.362-3.866 3.045-3.986 11.646-9.127 11.646a2.615 2.615 0 0 1-.526-.035 1.792 1.792 0 0 1-1.21-.623 1.837 1.837 0 0 1-.436-1.303c0-.19.069-.464.069-.62a.531.531 0 0 0-.308-.505.514.514 0 0 0-.202-.045h-.045c-.458 0-.645.378-.658.894-.034 1.53 1.07 2.408 2.783 2.583.186 0 .373.018.576.018 4.02 0 6.48-3.08 7.533-6.812a9.715 9.715 0 0 0 1.563-.344c1.866-.516 3.95-1.79 3.95-4.025m22.533 3.83a9.444 9.444 0 0 1-1.51 3.768c-.305.464-.576.584-.813.584-.34 0-.424-.275-.374-.667a9.252 9.252 0 0 1 1.442-3.491c.373-.516.61-.723.899-.723.272 0 .356.241.356.534m-15.639 3.955c-.203 0-.356-.07-.356-.344a6.414 6.414 0 0 1 1.306-2.958c.201-.33.474-.61.797-.818a2.51 2.51 0 0 1 1.07-.385l-.9 2.029c-.678 1.565-1.373 2.476-1.916 2.476Zm-8.82 0c-.203 0-.339-.07-.339-.344a6.792 6.792 0 0 1 1.306-2.958c.201-.33.474-.61.797-.818a2.51 2.51 0 0 1 1.07-.385l-.883 2.029c-.679 1.53-1.408 2.476-1.95 2.476ZM55.488 7.63h-1.425l-.306.757-.559 1.272h-.658l-.203.43h.695l-.831 1.84c-.594 1.307-1.51 2.583-2.036 2.583-.118 0-.187-.051-.187-.171.02-.191.072-.377.154-.55.169-.396.44-.964.644-1.393a6.99 6.99 0 0 0 .763-2.011.813.813 0 0 0-.242-.622.791.791 0 0 0-.622-.221c-.348.03-.686.132-.992.301-.307.169-.576.4-.79.679l.356-.86h-1.342l-1.086 2.493c-.424.885-1.306 2.343-1.866 2.343-.118 0-.17-.07-.17-.19.012-.106.04-.21.083-.309.051-.103.695-1.65.695-1.65l1.17-2.734h-1.425l-1.152 2.666c-.339.825-1.234 2.218-1.815 2.218a.175.175 0 0 1-.185-.098.182.182 0 0 1-.018-.073v-.034c.028-.21.091-.414.187-.602l.594-1.34 1.234-2.735h-1.425l-.272.62a1.407 1.407 0 0 1-.441.617c-.2.16-.44.262-.695.294-.271 0-.407-.104-.457-.207a1.437 1.437 0 0 0-.452-1.038 1.398 1.398 0 0 0-1.058-.372 3.006 3.006 0 0 0-1.484.44c-.45.275-.82.662-1.077 1.125a7.01 7.01 0 0 0-.849 1.892c-.508.842-1.035 1.5-1.458 1.5a.163.163 0 0 1-.18-.113.168.168 0 0 1-.007-.076c.034-.203.097-.4.187-.584l.933-2.011a4.14 4.14 0 0 0 .44-1.428.735.735 0 0 0-.227-.545.716.716 0 0 0-.552-.194 2.815 2.815 0 0 0-1.097.31 2.85 2.85 0 0 0-.888.722.95.95 0 0 0 .034-.31.652.652 0 0 0-.185-.546.634.634 0 0 0-.544-.176c-.358.03-.705.139-1.018.317a2.528 2.528 0 0 0-.797.715l.372-.929h-1.289l-1.102 2.51c-.526 1.167-1.357 2.339-1.832 2.339-.102 0-.17-.052-.17-.19.073-.35.186-.69.34-1.014l1.458-3.333c.102-.258-.594-.417-1.476-.417a4.074 4.074 0 0 0-2.527 1.05 2.257 2.257 0 0 1-1.018.601c-.082 0-.119-.052-.119-.103 0-.207.475-.774.475-1.221 0-.207-.102-.327-.373-.327a2.52 2.52 0 0 0-1.578 1.014l.374-.911h-1.272l-1.08 2.507c-.525 1.167-1.39 2.408-1.848 2.408-.119 0-.187-.07-.187-.207.074-.371.2-.73.373-1.066l1.442-3.333c.102-.258-.594-.417-1.475-.417a4.274 4.274 0 0 0-1.823.542 4.333 4.333 0 0 0-1.417 1.28 5.48 5.48 0 0 0-1.272 2.907 1.004 1.004 0 0 0 .262.813.98.98 0 0 0 .79.304 2.46 2.46 0 0 0 1.022-.355c.31-.193.575-.454.776-.762a1.766 1.766 0 0 0-.051.292c0 .482.186.825.763.825a2.49 2.49 0 0 0 .974-.375c.295-.192.548-.444.742-.74l-.424 1.014h1.374l1.354-3.11c.44-1.015.949-1.53 1.085-1.53.05 0 .082.017.082.051 0 .104-.22.396-.22.653 0 .258.135.465.525.465.329-.026.645-.138.916-.327a5.187 5.187 0 0 0-1.17 2.786.99.99 0 0 0 .256.82.963.963 0 0 0 .796.297 2.697 2.697 0 0 0 1.03-.41c.313-.207.58-.477.785-.793-.02.114-.031.229-.034.344a.8.8 0 0 0 .208.612.778.778 0 0 0 .59.248c.593 0 1.05-.378 1.645-1.1l-.441 1h1.425l1.29-2.975c.559-1.289 1.34-1.977 1.712-1.977.082-.018.17.069.187.155v.034a1.785 1.785 0 0 1-.119.43l-1.866 4.35h1.46l1.305-3.026c.576-1.307 1.204-1.943 1.662-1.943.152 0 .203.069.203.223-.011.166-.051.33-.118.482l-1.272 2.75a2.36 2.36 0 0 0-.22.825c0 .43.22.79.864.79.814 0 1.441-.635 2.154-1.564v.189a1.432 1.432 0 0 0 .468 1.06 1.394 1.394 0 0 0 1.095.35c1.306 0 2.341-.894 2.985-2.339a5.49 5.49 0 0 0 .459-1.616c.142.07.3.099.457.083.214.01.426-.044.61-.155l-.22.5c-.254.55-.543 1.152-.764 1.667-.143.302-.23.629-.254.963a.826.826 0 0 0 .227.651.804.804 0 0 0 .638.243c.395-.075.77-.231 1.102-.459a2.96 2.96 0 0 0 .832-.865c-.035.158-.052.32-.051.482 0 .43.135.842.712.842a2.4 2.4 0 0 0 1.728-1.135l-.424 1h1.425l1.136-2.63c.645-1.48 1.29-2.374 1.9-2.374a.2.2 0 0 1 .134.047.205.205 0 0 1 .07.125v.051a7.441 7.441 0 0 1-.68 1.6c-.232.486-.451.98-.658 1.478a2.468 2.468 0 0 0-.254.98.75.75 0 0 0 .21.594.731.731 0 0 0 .588.214 3.088 3.088 0 0 0 2.102-1.427c-.1.293-.15.601-.152.911a1.139 1.139 0 0 0 .302.912 1.11 1.11 0 0 0 .886.343 2.232 2.232 0 0 0 1.289-.43 6.126 6.126 0 0 0 1.34-1.478l-.254-.24a5.609 5.609 0 0 1-1.102 1.238c-.204.177-.46.28-.73.292-.305 0-.493-.155-.493-.533a5.016 5.016 0 0 1 .458-1.6s.39-.894.764-1.736c.305-.723.61-1.41.658-1.548h.933l.187-.43h-.916l.883-2.027Zm6.255 2.036 1.294-3.053h-1.534l-1.31 3.053h-3.245l-.551 1.273h3.257l-1.292 3.018h1.533l1.31-3.018h3.258l.534-1.273h-3.254Z" clip-rule="evenodd"/>
</svg>
