<svg width="280" height="111" viewBox="0 0 280 111" fill="none" xmlns="http://www.w3.org/2000/svg">
<g clip-path="url(#clip0_159_15045)">
<path d="M78.5801 107.462L92.5166 64.3726C92.6032 64.1043 92.7832 63.8756 93.0243 63.7278C93.2654 63.5799 93.5516 63.5227 93.8314 63.5665C94.1111 63.6102 94.3659 63.752 94.5499 63.9662C94.7338 64.1805 94.8348 64.4532 94.8346 64.735L94.8346 107.462L116.959 107.462L116.959 42.5159L76.339 42.5159L54.2824 107.46L78.5801 107.462Z" fill="white"/>
<path d="M127.798 42.5162H151.069V107.461H127.798V42.5162ZM0.5 61.8986H17.2308V107.464H39.7396V61.8986H56.4689V42.5162H0.5V61.8986ZM196.945 42.519V69.6542C196.946 69.9212 196.856 70.1807 196.689 70.3901C196.523 70.5996 196.29 70.7468 196.029 70.8077C195.767 70.8686 195.493 70.8396 195.25 70.7255C195.008 70.6114 194.811 70.4189 194.693 70.1793L180.933 42.519H158.943V107.465H180.327V80.4785C180.327 80.2119 180.417 79.9532 180.584 79.7443C180.75 79.5355 180.982 79.3887 181.243 79.3279C181.504 79.2671 181.778 79.2957 182.02 79.4093C182.262 79.5228 182.459 79.7146 182.578 79.9533L196.274 107.462H218.267V42.5162L196.945 42.519ZM245.492 81.5401V67.3526C245.492 63.7628 246.927 61.1243 250.387 60.2198C254.096 59.2573 257.519 61.6056 258.682 65.4473L279.149 54.5394C271.083 39.9017 255.993 40.1013 249.953 40.6279C243.298 41.0324 236.947 43.5474 231.832 47.8045C226.239 52.5662 223.592 60.3345 223.592 68.5288V81.3193C223.592 93.5096 228.427 101.64 236.766 106.393C251.152 114.586 271.34 108.999 279.504 102.815V71.643H258.372V91.1004C255.376 92.2583 245.498 93.586 245.498 81.5373" fill="white"/>
<path d="M181.875 1.63086H198.436V4.15894H181.875V1.63086Z" fill="white"/>
<path d="M195.136 6.49247L195.751 4.05922V4.03516H192.811L192.191 6.49247H187.841V4.03516H184.961V6.49247H181.672V8.94836H198.649V6.49247H195.136Z" fill="white"/>
<path d="M184.54 19.1224H198.436V13.3613H181.875V15.8087H195.775V16.675H181.878V22.4602H198.659V20.0184H184.54V19.1224Z" fill="white"/>
<path d="M180.844 9.94629H199.467V12.4758H180.844V9.94629Z" fill="white"/>
<path d="M227.28 1.63086H243.898V4.30049H227.28V1.63086Z" fill="white"/>
<path d="M236.95 11.5485V10.1047H244.117V7.48464H240.646L241.303 3.90625H238.389L237.709 7.48464H233.251V3.90625H230.371V7.48464H227.082V10.1047H233.955V11.5485H226.037V14.1927H244.992V11.5485H236.95Z" fill="white"/>
<path d="M227.28 22.4656H243.898V15.2734H227.28V22.4656ZM230.061 17.7775H241.118V19.9602H230.061V17.7775Z" fill="white"/>
<path d="M109.427 15.8047H106.494V22.4646H123.274V19.8785H109.42L109.427 15.8047Z" fill="white"/>
<path d="M120.111 11.0416H123.045V1.63281H106.495V4.35907H120.111V5.96283H106.495V8.64096H120.111V11.0416Z" fill="white"/>
<path d="M115.279 12.1881V9.53125H112.345V12.1881H105.468V14.7743H123.975V12.1881H115.279Z" fill="white"/>
<path d="M136.761 13.9274V11.1941L131.148 11.5904V9.22937H136.003V6.52718H131.148V4.36004H136.433V1.63379H128.214V14.5559L136.747 13.9302L136.761 13.9274Z" fill="white"/>
<path d="M139.011 16.5871H141.921V1.29688H139.01V6.53423H136.901V9.22934H139.01L139.011 16.5871Z" fill="white"/>
<path d="M143.112 1.19922H146.046V17.1604H143.112V1.19922Z" fill="white"/>
<path d="M131.878 19.8783V15.5879H128.944V22.4658H146.131V19.8783H131.878Z" fill="white"/>
<path d="M159.56 6.86878L166.102 16.2408L168.437 14.3808L162.322 5.88784H168.01V3.22386H161.015V0.499023H157.913V3.22386H151.087V5.89208H156.776L150.705 14.3709L153.01 16.2337L159.56 6.86878Z" fill="white"/>
<path d="M150.194 19.7959H168.934V22.4641H150.194V19.7959Z" fill="white"/>
<path d="M217.439 9.30613H218.99V15.6759H221.869V1.19531H218.99V6.63791H217.436V1.29157H214.6V14.7671H217.436L217.439 9.30613Z" fill="white"/>
<path d="M213.148 13.9486V11.3865L207.14 11.7715V9.01694H212.915V1.63086H204.259V4.17876H210.036V6.48744H204.259V14.6818L213.148 13.9486Z" fill="white"/>
<path d="M213.52 15.0391H213.508L204.378 20.7421L206.015 23.0366L213.508 18.299L220.973 23.0423L222.627 20.7365L213.52 15.0391Z" fill="white"/>
<path d="M88.7488 22.4786L85.451 12.9862H85.2078V22.4786H81.9114V1.66504H85.2306L85.2078 10.8927H85.451L88.6151 1.66504H92.2002L88.4388 11.7703L92.5984 22.4743L88.7488 22.4786Z" fill="white"/>
<path d="M93.9124 10.5195H101.073V13.1184H93.9124V10.5195Z" fill="white"/>
<path d="M58.2807 18.7559H61.5998V22.4786H58.2807V18.7559Z" fill="white"/>
<path d="M40.435 7.50115V1.66504H43.555V22.4729H40.324L37.0532 9.8523H36.8542L37.0092 15.1604V22.4729H33.9119V1.66504H37.4955L40.4165 13.1391H40.6369L40.435 7.50115Z" fill="white"/>
<path d="M68.2452 1.59863V22.4787H64.9744V6.51042H62.7844V4.52872C63.6177 4.57233 64.4352 4.29078 65.0633 3.7439C65.6913 3.19701 66.0803 2.42792 66.1476 1.60005L68.2452 1.59863Z" fill="white"/>
<path d="M55.9527 6.63254V17.5135C55.9527 20.7692 54.1822 22.6886 51.0408 22.6886C47.8767 22.6886 46.173 20.772 46.173 17.5135V6.63254C46.173 3.35141 47.8994 1.45605 51.0408 1.45605C54.205 1.45605 55.9527 3.35 55.9527 6.63254ZM52.5966 6.09748C52.5966 5.01746 51.9993 4.33518 51.092 4.33518C50.8707 4.33767 50.6524 4.38688 50.4515 4.47958C50.2507 4.57228 50.072 4.70634 49.9271 4.87292C49.7822 5.03949 49.6744 5.23478 49.611 5.44588C49.5475 5.65697 49.5298 5.87907 49.559 6.09748V18.0344C49.559 19.1144 50.179 19.7967 51.0636 19.7967C51.2844 19.7934 51.5021 19.7436 51.7022 19.6506C51.9024 19.5575 52.0805 19.4234 52.2247 19.2569C52.369 19.0904 52.4763 18.8954 52.5394 18.6847C52.6025 18.474 52.62 18.2524 52.5909 18.0344L52.5966 6.09748Z" fill="white"/>
</g>
<defs>
<clipPath id="clip0_159_15045">
<rect width="279" height="110" fill="white" transform="translate(0.5 0.5)"/>
</clipPath>
</defs>
</svg>
