<svg xmlns="http://www.w3.org/2000/svg" width="24" height="24" fill="none" viewBox="0 0 24 24">
  <g clip-path="url(#a)">
    <path fill="#000" d="M22.452 0H1.548C.693 0 0 .693 0 1.548v20.904C0 23.307.693 24 1.548 24h20.904c.855 0 1.548-.693 1.548-1.548V1.548C24 .693 23.307 0 22.452 0Z"/>
    <path fill="#FF002F" d="M1.935 8.517V3.87c0-.213.174-.387.388-.387h10.064c.214 0 .387.174.387.387v2.904l1.633-3.085a.387.387 0 0 1 .342-.206h7.544c.266 0 .453.264.365.516l-6.116 17.419a.387.387 0 0 1-.365.259H5.807a.387.387 0 0 1-.388-.387v-12a.387.387 0 0 0-.387-.387h-2.71a.387.387 0 0 1-.387-.387Z"/>
    <path fill="#fff" fill-rule="evenodd" d="M12.58 13.136a1.548 1.548 0 1 1 0-1.5 1.548 1.548 0 1 1 0 1.5Z" clip-rule="evenodd"/>
    <path fill="#030303" fill-rule="evenodd" d="M11.226 13.162a.774.774 0 1 0 0-1.549.774.774 0 0 0 0 1.549Zm2.71 0a.774.774 0 1 0 0-1.549.774.774 0 0 0 0 1.549Z" clip-rule="evenodd"/>
    <path fill="#fff" fill-rule="evenodd" d="M11.613 16.004a.774.774 0 0 0 .763-.906l-1.387.086a.389.389 0 0 0-.15.04v.006c0 .428.346.774.774.774Z" clip-rule="evenodd"/>
    <path stroke="#000" stroke-linecap="round" d="m10.243 15.275 4.646-.357"/>
    <path fill="#FF305B" fill-rule="evenodd" d="M16.645 14.13a.194.194 0 1 1-.387-.001.194.194 0 0 1 .387 0Zm1.161 0a.193.193 0 1 1-.387 0 .193.193 0 0 1 .387 0Zm-.967.967a.194.194 0 1 0 0-.387.194.194 0 0 0 0 .387Zm-9.871-.967a.194.194 0 1 0 .387 0 .194.194 0 0 0-.387 0Zm1.161 0a.194.194 0 1 0 .387 0 .194.194 0 0 0-.387 0Zm-.194.967a.194.194 0 1 1 0-.387.194.194 0 0 1 0 .387Z" clip-rule="evenodd"/>
  </g>
  <defs>
    <clipPath id="a">
      <path fill="#fff" d="M0 0h24v24H0z"/>
    </clipPath>
  </defs>
</svg>
