<svg width="28" height="28" viewBox="0 0 28 28" fill="none" xmlns="http://www.w3.org/2000/svg">
<g id="Group">
<path id="Vector" d="M19.1043 20.0938L13.9993 14.9887L8.89418 20.0938C8.82971 20.1596 8.75258 20.2114 8.66757 20.2469C8.58256 20.2824 8.49137 20.3007 8.39926 20.3002C8.26055 20.3005 8.125 20.2596 8.00961 20.1826C7.89422 20.1057 7.80424 19.9964 7.75121 19.8682C7.69819 19.74 7.68429 19.5981 7.71156 19.4621C7.73884 19.3261 7.80599 19.2018 7.90434 19.1039L13.0094 13.9989L7.90434 8.89378C7.77683 8.76175 7.70621 8.58513 7.7078 8.40159C7.7094 8.21805 7.7831 8.04192 7.91288 7.91214C8.04267 7.78235 8.21811 7.70865 8.40165 7.70706C8.58519 7.70546 8.76216 7.77642 8.89418 7.90393L13.9993 13.009L19.1043 7.90393C19.2364 7.77642 19.4133 7.70546 19.5969 7.70706C19.7804 7.70865 19.9559 7.78235 20.0856 7.91214C20.2154 8.04192 20.2891 8.21805 20.2907 8.40159C20.2923 8.58513 20.2217 8.76175 20.0942 8.89378L14.9891 13.9989L20.0942 19.1039C20.161 19.1685 20.2144 19.2455 20.2511 19.3309C20.2878 19.4163 20.307 19.5086 20.3078 19.6016C20.3086 19.6945 20.291 19.7863 20.2559 19.8723C20.2207 19.9583 20.1685 20.0363 20.1027 20.102C20.037 20.1677 19.9591 20.2199 19.873 20.2551C19.787 20.2903 19.6946 20.3079 19.6017 20.3071C19.5087 20.3063 19.417 20.2877 19.3316 20.251C19.2462 20.2143 19.1689 20.1606 19.1043 20.0938Z" fill="#C4C4C4"/>
</g>
</svg>
