<svg width="65" height="15" viewBox="0 0 65 15" fill="none" xmlns="http://www.w3.org/2000/svg">
<g id="group">
<path id="&#237;&#140;&#168;&#236;&#138;&#164; 4847" fill-rule="evenodd" clip-rule="evenodd" d="M16.4038 3.81917C16.4038 1.23583 13.7059 0 10.4995 0C7.07259 0 3.93366 1.53083 2.78012 3.92167C2.45594 4.56021 2.2867 5.26782 2.28645 5.98583C2.27704 6.6018 2.4489 7.20665 2.78012 7.72333C3.0896 8.13764 3.49796 8.4655 3.96685 8.67613C4.43575 8.88677 4.9498 8.97326 5.46075 8.9275C7.03885 8.9275 8.31088 8.05 8.31088 6.5025C8.31198 6.44129 8.30003 6.38055 8.27585 6.32444C8.25168 6.26832 8.21583 6.21815 8.17077 6.17734C8.12572 6.13652 8.0725 6.10603 8.01475 6.08794C7.957 6.06985 7.89607 6.06458 7.83613 6.0725C7.42885 6.0725 7.32765 6.365 7.34246 6.5025C7.37895 6.77735 7.35646 7.05694 7.27651 7.32218C7.19656 7.58742 7.06105 7.83207 6.87921 8.03941C6.69738 8.24676 6.47351 8.41192 6.22289 8.52362C5.97227 8.63533 5.7008 8.69094 5.42702 8.68667C4.01923 8.68667 3.42518 7.465 3.42518 6.15833C3.42518 3.49167 5.41056 1.7375 7.46341 0.963333C8.42865 0.597681 9.45256 0.416835 10.483 0.43C12.8247 0.43 14.7245 1.34167 14.7245 3.76333C14.6947 4.76481 14.3 5.71966 13.6163 6.4438C12.9326 7.16794 12.0084 7.61009 11.022 7.685L11.1042 7.41C11.4507 5.87906 12.0409 4.41546 12.8518 3.07667C12.9147 2.96598 12.9886 2.8621 13.0723 2.76667L12.9539 2.62917C12.7736 2.73378 12.6031 2.85484 12.4445 2.99083C8.57746 6.03583 8.45733 14.6367 3.31658 14.6367C3.14064 14.643 2.96451 14.6316 2.79082 14.6025C2.32241 14.5627 1.88799 14.3388 1.58047 13.9787C1.27294 13.6187 1.11673 13.151 1.14525 12.6758C1.14525 12.4867 1.21354 12.2117 1.21354 12.0567C1.21697 11.9863 1.2064 11.916 1.18245 11.8499C1.15851 11.7838 1.12169 11.7233 1.07417 11.6719C1.02665 11.6205 0.969415 11.5793 0.905862 11.5508C0.84231 11.5223 0.77374 11.507 0.704233 11.5058H0.65898C0.200689 11.5058 0.0139169 11.8842 0.000752328 12.4C-0.0329819 13.9308 1.07037 14.8083 2.78341 14.9833C2.97018 14.9833 3.15695 15.0008 3.35936 15.0008C7.38031 15.0008 9.84044 11.9217 10.8928 8.18917C11.4222 8.11765 11.9451 8.00255 12.4561 7.845C14.3221 7.32917 16.4054 6.05583 16.4054 3.82" fill="#C4C4C4"/>
<path id="&#237;&#140;&#168;&#236;&#138;&#164; 4848" fill-rule="evenodd" clip-rule="evenodd" d="M39.7652 8.56586C39.5402 9.91871 39.0248 11.2051 38.2554 12.3342C37.9502 12.7984 37.6795 12.9175 37.4417 12.9175C37.1027 12.9175 37.0179 12.6425 37.0681 12.2509C37.3043 10.9986 37.7952 9.80973 38.5097 8.76003C38.8832 8.24419 39.1202 8.03753 39.409 8.03753C39.6805 8.03753 39.7652 8.27836 39.7652 8.57086M24.1265 12.5259C23.9233 12.5259 23.7703 12.4567 23.7703 12.1817C23.9468 11.0984 24.3966 10.0797 25.076 9.22419C25.2773 8.89403 25.5497 8.61427 25.8729 8.40587C26.1961 8.19748 26.5616 8.06586 26.9421 8.02086L26.0436 10.05C25.3648 11.615 24.6696 12.5259 24.1265 12.5259ZM15.3063 12.5259C15.1031 12.5259 14.9673 12.4567 14.9673 12.1817C15.1591 11.1031 15.6072 10.088 16.2731 9.22419C16.4743 8.89403 16.7467 8.61427 17.0699 8.40587C17.3931 8.19748 17.7586 8.06586 18.1391 8.02086L17.2571 10.05C16.5783 11.58 15.8493 12.5259 15.3063 12.5259ZM55.4878 5.63086H54.0628L53.7575 6.38753L53.198 7.66003H52.5398L52.3366 8.09003H53.0318L52.2008 9.93003C51.6067 11.2367 50.691 12.5134 50.1652 12.5134C50.0467 12.5134 49.9784 12.4617 49.9784 12.3417C49.9977 12.1508 50.0495 11.9647 50.1315 11.7917C50.301 11.3959 50.5725 10.8284 50.7757 10.3992C51.1322 9.77305 51.3898 9.09429 51.5393 8.38752C51.5453 8.2724 51.5268 8.1573 51.485 8.05006C51.4432 7.94282 51.3791 7.84595 51.2971 7.76602C51.2151 7.6861 51.117 7.62499 51.0096 7.58686C50.9022 7.54873 50.7879 7.53446 50.6745 7.54503C50.3269 7.57487 49.9891 7.67736 49.6825 7.84603C49.3759 8.0147 49.1072 8.2459 48.8932 8.52503L49.2495 7.66502H47.9067L46.8214 10.1584C46.3969 11.0425 45.5148 12.5009 44.9553 12.5009C44.8369 12.5009 44.7859 12.4317 44.7859 12.3117C44.7974 12.205 44.8251 12.1007 44.8681 12.0025C44.9191 11.8992 45.5634 10.3517 45.5634 10.3517L46.7334 7.61753H45.3083L44.1564 10.2842C43.8174 11.1092 42.9222 12.5025 42.3414 12.5025C42.3166 12.5063 42.2914 12.5047 42.2673 12.4979C42.2432 12.4911 42.2208 12.4792 42.2016 12.463C42.1824 12.4467 42.1669 12.4266 42.1559 12.4038C42.145 12.381 42.1389 12.3562 42.1381 12.3309V12.2967C42.166 12.0868 42.2292 11.8833 42.3249 11.695L42.919 10.3542L44.1531 7.62003H42.7281L42.4565 8.23919C42.3682 8.48224 42.2154 8.69591 42.0149 8.85674C41.8145 9.01757 41.5741 9.11934 41.3203 9.15086C41.0488 9.15086 40.913 9.04752 40.8628 8.94419C40.8619 8.74904 40.8213 8.55617 40.7436 8.37761C40.6658 8.19905 40.5526 8.03862 40.4109 7.90633C40.2693 7.77404 40.1023 7.67273 39.9202 7.6087C39.7382 7.54467 39.5451 7.51931 39.353 7.53419C38.8289 7.54866 38.3175 7.70044 37.8686 7.97471C37.4198 8.24899 37.0487 8.63641 36.7917 9.09919C36.4172 9.68328 36.1312 10.3209 35.9434 10.9909C35.4349 11.8334 34.9083 12.4909 34.4846 12.4909C34.4592 12.4946 34.4333 12.4924 34.4089 12.4842C34.3846 12.476 34.3624 12.4622 34.3443 12.4438C34.3261 12.4254 34.3125 12.403 34.3044 12.3783C34.2963 12.3537 34.2941 12.3274 34.2978 12.3017C34.3319 12.0991 34.3948 11.9026 34.4846 11.7184L35.4176 9.70669C35.6497 9.26222 35.7992 8.77836 35.8586 8.27919C35.8606 8.17718 35.8414 8.07589 35.8022 7.9819C35.7631 7.8879 35.7048 7.8033 35.6312 7.7336C35.5577 7.66389 35.4705 7.61063 35.3753 7.57728C35.2801 7.54393 35.179 7.53124 35.0786 7.54003C34.6963 7.56758 34.3233 7.67317 33.9823 7.85047C33.6412 8.02776 33.3391 8.27309 33.0941 8.57169C33.122 8.4712 33.1334 8.36676 33.1278 8.26253C33.1412 8.16306 33.1315 8.06178 33.0994 7.96681C33.0672 7.87184 33.0136 7.7858 32.9427 7.71558C32.8719 7.64537 32.7858 7.59292 32.6914 7.56243C32.5969 7.53195 32.4967 7.52428 32.3988 7.54003C32.0411 7.57094 31.6941 7.67899 31.3811 7.85693C31.068 8.03487 30.7962 8.27858 30.5838 8.57169L30.9565 7.64336H29.6672L28.5647 10.1534C28.0389 11.32 27.2079 12.4917 26.7331 12.4917C26.6311 12.4917 26.5636 12.44 26.5636 12.3025C26.6356 11.9518 26.7494 11.6112 26.9026 11.2884L28.3614 7.95502C28.4634 7.69669 27.7674 7.53836 26.8853 7.53836C25.9492 7.5853 25.0572 7.95557 24.3578 8.58753C24.077 8.87571 23.7258 9.08332 23.34 9.18919C23.2577 9.18919 23.2215 9.13753 23.2215 9.08586C23.2215 8.87919 23.6962 8.31253 23.6962 7.86503C23.6962 7.65836 23.5942 7.53836 23.3227 7.53836C22.6882 7.6595 22.1236 8.02248 21.7454 8.55253L22.119 7.64086H20.8469L19.7674 10.1484C19.2417 11.315 18.3769 12.5559 17.9186 12.5559C17.8002 12.5559 17.7319 12.4867 17.7319 12.3492C17.806 11.9778 17.9317 11.6189 18.1054 11.2834L19.5469 7.95003C19.649 7.69169 18.9529 7.53336 18.0717 7.53336C17.432 7.57437 16.8093 7.75922 16.249 8.07447C15.6887 8.38972 15.2048 8.82746 14.8324 9.35586C14.1325 10.1748 13.6896 11.1865 13.5603 12.2617C13.5413 12.4085 13.5549 12.5577 13.6003 12.6985C13.6456 12.8392 13.7215 12.9679 13.8223 13.0751C13.9232 13.1822 14.0464 13.2652 14.183 13.3178C14.3197 13.3704 14.4662 13.3914 14.6119 13.3792C14.9742 13.3382 15.3232 13.2168 15.6339 13.0237C15.9447 12.8305 16.2095 12.5704 16.4097 12.2617C16.3845 12.3575 16.3674 12.4554 16.3586 12.5542C16.3586 13.0359 16.5454 13.3792 17.1222 13.3792C17.469 13.3242 17.8007 13.1966 18.0961 13.0044C18.3914 12.8123 18.644 12.5599 18.8377 12.2634L18.414 13.2775H19.788L21.1415 10.1675C21.5825 9.15336 22.091 8.63752 22.2267 8.63752C22.2778 8.63752 22.309 8.65502 22.309 8.68919C22.309 8.79252 22.0885 9.08502 22.0885 9.34252C22.0885 9.60002 22.2243 9.80669 22.6143 9.80669C22.9426 9.78147 23.2585 9.66877 23.53 9.48003C22.8734 10.269 22.4658 11.2395 22.36 12.2659C22.3381 12.4132 22.3497 12.5636 22.3939 12.7057C22.4382 12.8478 22.514 12.9777 22.6155 13.0856C22.7169 13.1934 22.8414 13.2763 22.9794 13.3279C23.1174 13.3795 23.2652 13.3985 23.4116 13.3834C23.7795 13.3199 24.1306 13.1803 24.4429 12.9733C24.7552 12.7662 25.022 12.4962 25.2266 12.18C25.207 12.2937 25.1957 12.4088 25.1929 12.5242C25.183 12.6352 25.1964 12.747 25.2322 12.8524C25.2681 12.9578 25.3255 13.0543 25.4009 13.1355C25.4762 13.2168 25.5676 13.2809 25.6692 13.3238C25.7708 13.3666 25.8802 13.3872 25.9902 13.3842C26.5842 13.3842 27.0417 13.0059 27.6357 12.2842L27.1947 13.2842H28.6198L29.9091 10.3092C30.4686 9.02002 31.2494 8.33169 31.6221 8.33169C31.7044 8.31419 31.7916 8.40086 31.8089 8.48669V8.52086C31.7875 8.66869 31.7477 8.81317 31.6904 8.95086L29.8243 13.3009H31.2831L32.5889 10.275C33.1648 8.96836 33.7934 8.33169 34.2509 8.33169C34.4031 8.33169 34.4541 8.40086 34.4541 8.55503C34.4429 8.72139 34.4028 8.88445 34.3357 9.03669L33.0636 11.7867C32.9412 12.0458 32.8665 12.3254 32.8431 12.6117C32.8431 13.0417 33.0636 13.4025 33.7079 13.4025C34.5216 13.4025 35.1494 12.7667 35.8619 11.8375V12.0267C35.8615 12.2271 35.903 12.4253 35.9838 12.6082C36.0645 12.7911 36.1827 12.9546 36.3304 13.0878C36.4782 13.2211 36.6522 13.3211 36.8409 13.3812C37.0296 13.4414 37.2288 13.4603 37.4252 13.4367C38.731 13.4367 39.766 12.5425 40.4103 11.0984C40.6449 10.5868 40.7996 10.0414 40.8686 9.48169C41.0105 9.55198 41.1689 9.58084 41.326 9.56503C41.5402 9.57517 41.7525 9.52127 41.9366 9.41003L41.716 9.91002C41.4618 10.46 41.173 11.0617 40.9525 11.5767C40.8087 11.8788 40.7225 12.2056 40.6983 12.54C40.6867 12.6588 40.701 12.7786 40.7401 12.8912C40.7793 13.0037 40.8423 13.1062 40.9247 13.1914C41.0071 13.2767 41.107 13.3426 41.2173 13.3845C41.3275 13.4265 41.4456 13.4434 41.563 13.4342C41.9575 13.359 42.3327 13.2027 42.6652 12.975C42.9978 12.7472 43.2807 12.4528 43.4966 12.11C43.4619 12.2682 43.4448 12.4297 43.4455 12.5917C43.4455 13.0217 43.5813 13.4342 44.1581 13.4342C44.5109 13.3859 44.8489 13.2591 45.1476 13.0629C45.4464 12.8666 45.6985 12.6058 45.8859 12.2992L45.4622 13.2992H46.8873L48.0235 10.6684C48.6678 9.18919 49.3128 8.29502 49.9233 8.29502C49.9719 8.294 50.0193 8.31081 50.0566 8.34236C50.094 8.3739 50.1188 8.41806 50.1266 8.46669V8.51836C49.9633 9.07665 49.7355 9.61343 49.4478 10.1175C49.2153 10.6042 48.9958 11.0972 48.7895 11.5959C48.6381 11.901 48.5515 12.2348 48.5353 12.5759C48.525 12.6845 48.5385 12.7942 48.5749 12.8969C48.6113 12.9997 48.6697 13.093 48.7459 13.1703C48.8221 13.2475 48.9142 13.3067 49.0156 13.3437C49.117 13.3807 49.2253 13.3945 49.3326 13.3842C49.7629 13.3106 50.1729 13.1452 50.5354 12.8992C50.898 12.6531 51.2048 12.3318 51.4356 11.9567C51.3357 12.25 51.2843 12.5581 51.2834 12.8684C51.2641 13.0334 51.2811 13.2006 51.3332 13.3582C51.3853 13.5157 51.4712 13.6596 51.5846 13.7796C51.6981 13.8996 51.8364 13.9926 51.9896 14.052C52.1428 14.1115 52.3071 14.1358 52.4707 14.1234C52.9339 14.1179 53.3841 13.9677 53.76 13.6934C54.2836 13.2782 54.7364 12.7788 55.1003 12.215L54.846 11.9742C54.5412 12.4401 54.1696 12.8574 53.7435 13.2125C53.5399 13.3903 53.2831 13.4934 53.0145 13.505C52.7093 13.505 52.5209 13.35 52.5209 12.9717C52.5837 12.4163 52.7386 11.8757 52.9791 11.3725C52.9791 11.3725 53.3692 10.4784 53.7427 9.63586C54.048 8.91336 54.3532 8.22586 54.4009 8.08836H55.334L55.5207 7.65836H54.605L55.4878 5.63086Z" fill="#C4C4C4"/>
<path id="&#237;&#140;&#168;&#236;&#138;&#164; 4849" fill-rule="evenodd" clip-rule="evenodd" d="M61.7426 7.66578L63.0369 4.61328H61.5032L60.1933 7.66578H56.9482L56.397 8.93912H59.6544L58.3618 11.9566H59.8954L61.2053 8.93912H64.4627L64.9967 7.66578H61.7426Z" fill="#C4C4C4"/>
</g>
</svg>
